<svg width="60" height="60" viewBox="0 0 60 60" fill="none" xmlns="http://www.w3.org/2000/svg">
<path d="M53.0737 6.79652C52.5873 6.79652 52.1931 7.19085 52.1931 7.67718V16.3894H36.2275L36.1697 16.2703C36.5597 15.409 36.7787 14.4543 36.7787 13.4488C36.7787 9.9614 34.1645 7.07496 30.7932 6.64125V3.40007C30.7932 2.91375 30.399 2.51941 29.9126 2.51941C29.4263 2.51941 29.0319 2.91375 29.0319 3.40007V6.64125C25.6607 7.07507 23.0464 9.9614 23.0464 13.4488C23.0464 14.5007 23.2848 15.4975 23.7094 16.3894H7.80703V7.67718C7.80703 7.19085 7.4127 6.79652 6.92637 6.79652C3.10723 6.79652 0 9.90374 0 13.723V51.1275C0 51.1925 0.0075 51.2557 0.0208594 51.3168C0.1425 52.9375 0.843633 54.4432 2.01539 55.5862C3.26789 56.8078 4.92117 57.4806 6.67113 57.4806H53.3288C55.0786 57.4806 56.7321 56.8079 57.9845 55.5862C59.1565 54.4432 59.8574 52.9375 59.979 51.3168C59.9924 51.2557 59.9999 51.1925 59.9999 51.1275V13.723H60C60 9.90374 56.8928 6.79652 53.0737 6.79652ZM46.9815 42.6123C45.9676 42.902 44.8915 42.8723 43.8764 42.517C42.5787 42.0626 41.5357 41.1301 40.9382 39.8884L31.3581 20.1603C32.0561 20.0102 32.7142 19.7532 33.3161 19.4081C33.3465 19.3908 33.3769 19.3734 33.407 19.3557C33.4532 19.3283 33.4989 19.3002 33.5443 19.2718C33.5923 19.2419 33.6396 19.2115 33.6867 19.1803C33.7191 19.1591 33.7513 19.1378 33.7833 19.116C33.8582 19.0648 33.9322 19.0121 34.0051 18.958C34.0104 18.9541 34.0158 18.9504 34.0209 18.9465C34.3938 18.6682 34.7398 18.352 35.0514 18.0009L46.9815 42.6123ZM29.8338 27.5101C29.3475 27.5101 28.9532 27.9044 28.9532 28.3908V30.1877H25.7433L30.0116 21.4199L34.2693 30.1877H30.7144V28.3908C30.7145 27.9044 30.3203 27.5101 29.8338 27.5101ZM29.9128 8.3441C32.7275 8.3441 35.0175 10.6341 35.0175 13.4489C35.0175 14.3557 34.7787 15.2074 34.3624 15.9464C34.3325 15.9995 34.3025 16.0525 34.2709 16.1043C34.241 16.1532 34.2095 16.2013 34.1779 16.2491C34.1568 16.2813 34.1352 16.3132 34.1133 16.345C34.0789 16.3945 34.0445 16.444 34.0084 16.4921C33.9922 16.5139 33.975 16.535 33.9585 16.5565C33.8883 16.6478 33.815 16.7365 33.7388 16.8226C33.7165 16.8478 33.6945 16.8734 33.6717 16.8981C33.6323 16.941 33.5921 16.9828 33.5514 17.0243C33.5217 17.0544 33.4916 17.0838 33.4614 17.1131C33.4237 17.1496 33.3864 17.1862 33.3476 17.2216C33.2822 17.281 33.2155 17.3389 33.1472 17.3948C33.1202 17.417 33.0922 17.4381 33.0648 17.4596C33.0091 17.5034 32.953 17.5461 32.8957 17.5874C32.8721 17.6044 32.8485 17.6214 32.8247 17.6379C32.0094 18.2039 31.0336 18.5319 30.0087 18.5509H30.0086C30.0032 18.551 29.9979 18.5511 29.9938 18.5512C29.9926 18.5512 29.9916 18.5515 29.9905 18.5515C29.9896 18.5515 29.9886 18.5514 29.9877 18.5514L29.9127 18.5535C29.8082 18.5535 29.7042 18.5495 29.6006 18.543C29.5772 18.5416 29.554 18.5394 29.5307 18.5378C29.4424 18.5311 29.3543 18.5225 29.2669 18.5113C29.2529 18.5095 29.2389 18.5079 29.2248 18.5059C28.2414 18.3707 27.3205 17.9494 26.576 17.3072C26.5692 17.3013 26.5624 17.2955 26.5556 17.2895C26.4776 17.2215 26.4013 17.1512 26.3273 17.0782C26.3251 17.076 26.3228 17.0739 26.3205 17.0716C26.2487 17.0006 26.1793 16.9268 26.1115 16.8513C26.0921 16.8298 26.0734 16.8075 26.0545 16.7856C26.0087 16.7328 25.9642 16.6791 25.9204 16.6242C25.8975 16.5955 25.8745 16.5668 25.8523 16.5376C25.805 16.4759 25.7593 16.4127 25.7149 16.3485C25.6954 16.3202 25.6758 16.2918 25.6568 16.2632C25.6114 16.1948 25.5677 16.1253 25.5255 16.0546C25.0704 15.2912 24.8081 14.4002 24.8081 13.4489C24.808 10.6339 27.0981 8.3441 29.9128 8.3441ZM58.2388 46.5168C58.1331 46.3985 58.0246 46.2824 57.9101 46.1706C56.8218 45.1077 55.4413 44.4444 53.9543 44.2563V39.1066C53.9543 38.6203 53.5601 38.226 53.0736 38.226C52.5872 38.226 52.193 38.6203 52.193 39.1066V45.0818C52.193 45.5681 52.5873 45.9625 53.0736 45.9625C53.0743 45.9625 53.075 45.9625 53.0757 45.9625C53.1623 45.9625 53.2485 45.9648 53.3341 45.969C53.3558 45.9701 53.3775 45.9724 53.3992 45.9737C53.4642 45.9778 53.5293 45.982 53.5936 45.9885C53.6135 45.9905 53.6333 45.9935 53.6531 45.9956C53.7199 46.0031 53.7865 46.011 53.8525 46.0209C53.8658 46.0229 53.8791 46.0256 53.8924 46.0277C53.9653 46.0393 54.038 46.052 54.1099 46.0668C54.1154 46.0678 54.1208 46.0692 54.1263 46.0704C55.7149 46.4006 57.0386 47.4627 57.727 48.887C57.7289 48.891 57.7308 48.895 57.7327 48.8989C57.7652 48.9667 57.7962 49.0352 57.8258 49.1045C57.8331 49.1215 57.8399 49.1387 57.8469 49.1557C57.87 49.2116 57.8925 49.268 57.9137 49.3248C57.9252 49.3559 57.9361 49.3871 57.9471 49.4185C57.9622 49.4616 57.977 49.5046 57.9911 49.548C58.0054 49.5929 58.0188 49.638 58.0321 49.6835C58.0409 49.7135 58.0495 49.7435 58.0577 49.7737C58.0733 49.8314 58.0877 49.8894 58.1014 49.9478C58.1057 49.9661 58.11 49.9844 58.1141 50.0027C58.1292 50.0713 58.1432 50.1402 58.1557 50.2096C58.1572 50.2179 58.1587 50.2262 58.1602 50.2345C58.1736 50.312 58.1855 50.3899 58.1955 50.4683C58.1957 50.4689 58.1957 50.4695 58.1958 50.47C58.2165 50.6344 58.2296 50.8004 58.2348 50.9679C58.1501 53.6341 55.9998 55.7193 53.3289 55.7193H6.67125C4.00031 55.7193 1.85016 53.634 1.76555 50.968C1.77059 50.8005 1.78359 50.6345 1.80445 50.4703C1.80457 50.4696 1.80469 50.4689 1.80469 50.4682C1.81453 50.39 1.82648 50.3121 1.83996 50.2348C1.84148 50.2263 1.84301 50.2179 1.84453 50.2094C1.85684 50.1402 1.87078 50.0714 1.88602 50.003C1.89012 49.9844 1.89445 49.9659 1.89879 49.9475C1.91227 49.8894 1.92691 49.8315 1.94238 49.774C1.95059 49.7437 1.95938 49.7136 1.96805 49.6834C1.98117 49.638 1.99465 49.5929 2.00906 49.5479C2.02301 49.5046 2.03777 49.4616 2.05289 49.4187C2.06379 49.3873 2.07469 49.3559 2.08641 49.3247C2.10762 49.268 2.13 49.2117 2.15309 49.1559C2.16012 49.1388 2.16703 49.1214 2.1743 49.1043C2.20395 49.035 2.23488 48.9664 2.26734 48.8988C2.26922 48.8948 2.27098 48.8909 2.27297 48.8869C2.9618 47.4619 4.28648 46.3994 5.87613 46.0697C5.88059 46.0687 5.88504 46.0677 5.88949 46.0668C5.96238 46.0519 6.03598 46.0391 6.11004 46.0273C6.12234 46.0253 6.13465 46.0228 6.14719 46.0209C6.2141 46.0107 6.2816 46.0028 6.34934 45.9952C6.36832 45.993 6.38719 45.9902 6.40629 45.9882C6.47156 45.9817 6.53742 45.9773 6.60328 45.9732C6.62414 45.9719 6.645 45.9697 6.66586 45.9687C6.75211 45.9643 6.83906 45.9621 6.92637 45.9621C7.4127 45.9621 7.80703 45.5678 7.80703 45.0814V25.2627V25.2626C7.80703 24.7762 7.4127 24.3819 6.92637 24.3819C6.44004 24.3819 6.0457 24.7762 6.0457 25.2626V25.2627V44.2564C4.55859 44.4445 3.17824 45.1077 2.0898 46.1707C1.97531 46.2825 1.8668 46.3986 1.76121 46.5169V13.723C1.76121 11.1752 3.61582 9.05214 6.0457 8.63296V21.74V21.7402C6.0457 22.2265 6.44004 22.6208 6.92637 22.6208C7.4127 22.6208 7.80703 22.2265 7.80703 21.7402V21.74V18.1506H22.9414L21.6632 20.7827L21.0773 21.9889C20.8648 22.4264 21.0472 22.9533 21.4848 23.1659C21.5146 23.1803 21.5446 23.1925 21.575 23.2034C21.583 23.2062 21.5911 23.2082 21.5991 23.2109C21.6211 23.218 21.6434 23.2247 21.6656 23.23C21.6765 23.2325 21.6873 23.2344 21.6983 23.2365C21.718 23.2404 21.7378 23.244 21.7575 23.2465C21.7693 23.248 21.7812 23.2491 21.7931 23.2501C21.812 23.2518 21.8309 23.2528 21.8497 23.2533C21.8562 23.2534 21.8626 23.2543 21.8689 23.2543C21.8736 23.2543 21.8782 23.2534 21.8829 23.2534C21.9172 23.2528 21.9512 23.2508 21.9851 23.2464C21.9873 23.246 21.9895 23.246 21.9918 23.2457C22.0274 23.2406 22.0622 23.2329 22.0968 23.2236C22.1063 23.221 22.1156 23.2181 22.1251 23.2153C22.1532 23.2068 22.1808 23.1969 22.2079 23.1855C22.2146 23.1827 22.2216 23.1803 22.2284 23.1773C22.2607 23.1629 22.292 23.1465 22.3225 23.1281C22.3302 23.1234 22.3377 23.1183 22.3453 23.1134C22.3693 23.098 22.3927 23.0812 22.4152 23.0635C22.4225 23.0577 22.43 23.0521 22.4373 23.046C22.4647 23.0229 22.4911 22.998 22.5157 22.9714C22.5203 22.9665 22.5243 22.9612 22.5287 22.9562C22.5491 22.9331 22.5684 22.9086 22.5865 22.8831C22.5925 22.8746 22.5983 22.8663 22.6041 22.8577C22.6248 22.826 22.6445 22.7934 22.6614 22.7585L22.6615 22.7584L22.8234 22.425L24.9041 18.1411C24.9415 18.1808 24.98 18.219 25.0182 18.2578C25.0375 18.2774 25.0564 18.2974 25.0759 18.3168C25.1299 18.3702 25.185 18.4223 25.2407 18.4739C25.3104 18.5388 25.3816 18.6019 25.4542 18.6639C25.47 18.6773 25.4856 18.6915 25.5016 18.705C25.5643 18.7576 25.6283 18.8086 25.6928 18.8591C25.7004 18.8651 25.7079 18.871 25.7155 18.8769C26.5594 19.531 27.5589 19.9925 28.6486 20.1963L19.0608 39.8913C18.7168 40.6057 18.2286 41.2048 17.6476 41.6703C16.3696 42.6946 14.643 43.0728 13.0196 42.6121L21.1065 25.9608C21.173 25.8241 21.2009 25.6786 21.1942 25.5368C21.18 25.2247 20.9998 24.93 20.6989 24.7839C20.2615 24.5715 19.7346 24.7537 19.522 25.1913L17.0954 30.188H13.7684C13.282 30.188 12.8877 30.5823 12.8877 31.0686C12.8877 31.555 13.282 31.9493 13.7684 31.9493H16.2401L11.0161 42.7058C11.0033 42.7321 10.992 42.759 10.9819 42.7861C10.9418 42.895 10.9237 43.0102 10.9283 43.1251C10.9317 43.2112 10.9477 43.2973 10.9766 43.3801C11.0536 43.6012 11.2154 43.7825 11.4264 43.884C11.7877 44.0579 12.1567 44.1975 12.5298 44.304C13.1516 44.4816 13.7848 44.5672 14.4122 44.5672C16.9848 44.567 19.4587 43.1252 20.6461 40.6588L24.8861 31.9492H28.9534V34.6386C28.9534 35.125 29.3477 35.5193 29.8341 35.5193C30.3204 35.5193 30.7147 35.125 30.7147 34.6386V31.9492H35.1251L39.3527 40.6553C40.153 42.318 41.553 43.5697 43.2947 44.1796C44.042 44.4412 44.8138 44.5713 45.583 44.5713C46.4783 44.5713 47.3701 44.395 48.2149 44.0448C48.3356 43.9948 48.4554 43.9412 48.574 43.884C48.7848 43.7825 48.9465 43.6014 49.0236 43.3805C49.1007 43.1596 49.0866 42.917 48.9845 42.7065L43.77 31.9493H45.8995C46.386 31.9493 46.7802 31.555 46.7802 31.0686C46.7802 30.5823 46.386 30.188 45.8995 30.188H42.9162L37.0814 18.1508H52.193V35.5843C52.193 36.0707 52.5873 36.465 53.0736 36.465H53.0737C53.5602 36.465 53.9544 36.0707 53.9544 35.5843V8.63296C56.3843 9.05214 58.2388 11.1751 58.2388 13.723V46.5168Z" fill="black"/>
</svg>
