<svg width="60" height="60" viewBox="0 0 60 60" fill="none" xmlns="http://www.w3.org/2000/svg">
<path d="M59.1188 0H42.1582C41.6715 0 41.2769 0.394571 41.2769 0.881252C41.2769 1.36793 41.6715 1.7625 42.1582 1.7625H58.2377V9.01209H54.8607V6.52115C54.8607 6.03447 54.4662 5.63989 53.9795 5.63989C53.4928 5.63989 53.0982 6.03447 53.0982 6.52115V9.01197H49.307V6.52115C49.307 6.03447 48.9124 5.63989 48.4257 5.63989C47.939 5.63989 47.5445 6.03447 47.5445 6.52115V9.01197H43.7532V6.52115C43.7532 6.03447 43.3586 5.63989 42.872 5.63989C42.3853 5.63989 41.9907 6.03447 41.9907 6.52115V9.01197H38.1995V6.52115C38.1995 6.03447 37.8049 5.63989 37.3182 5.63989C36.8315 5.63989 36.437 6.03447 36.437 6.52115V9.01197H32.6457V6.52115C32.6457 6.03447 32.2511 5.63989 31.7644 5.63989C31.2778 5.63989 30.8832 6.03447 30.8832 6.52115V9.01197H27.0919V6.52115C27.0919 6.03447 26.6974 5.63989 26.2107 5.63989C25.724 5.63989 25.3294 6.03447 25.3294 6.52115V9.01197H21.5382V6.52115C21.5382 6.03447 21.1436 5.63989 20.6569 5.63989C20.1702 5.63989 19.7757 6.03447 19.7757 6.52115V9.01197H15.9844V6.52115C15.9844 6.03447 15.5898 5.63989 15.1032 5.63989C14.6165 5.63989 14.2219 6.03447 14.2219 6.52115V9.01197H10.7745V1.76239H38.6333C39.12 1.76239 39.5145 1.36782 39.5145 0.881135C39.5145 0.394454 39.1198 0 38.6333 0H0.881252C0.394571 0 0 0.394571 0 0.881252V9.89334V20.1381C0 20.6248 0.394571 21.0194 0.881252 21.0194C1.36793 21.0194 1.7625 20.6248 1.7625 20.1381V10.7745H9.01209V14.2224H6.52115C6.03447 14.2224 5.63989 14.6169 5.63989 15.1036C5.63989 15.5903 6.03447 15.9849 6.52115 15.9849H9.01197V19.7761H6.52115C6.03447 19.7761 5.63989 20.1707 5.63989 20.6574C5.63989 21.1441 6.03447 21.5386 6.52115 21.5386H9.01197V25.3299H6.52115C6.03447 25.3299 5.63989 25.7245 5.63989 26.2111C5.63989 26.6978 6.03447 27.0924 6.52115 27.0924H9.01197V30.8837H6.52115C6.03447 30.8837 5.63989 31.2782 5.63989 31.7649C5.63989 32.2516 6.03447 32.6462 6.52115 32.6462H9.01197V36.4374H6.52115C6.03447 36.4374 5.63989 36.832 5.63989 37.3187C5.63989 37.8054 6.03447 38.1999 6.52115 38.1999H9.01197V41.9912H6.52115C6.03447 41.9912 5.63989 42.3857 5.63989 42.8724C5.63989 43.3591 6.03447 43.7537 6.52115 43.7537H9.01197V47.5449H6.52115C6.03447 47.5449 5.63989 47.9395 5.63989 48.4262C5.63989 48.9129 6.03447 49.3074 6.52115 49.3074H9.01197V53.0987H6.52115C6.03447 53.0987 5.63989 53.4933 5.63989 53.98C5.63989 54.4666 6.03447 54.8612 6.52115 54.8612H9.01197V58.2382H1.76239V23.6628C1.76239 23.1761 1.36782 22.7815 0.881135 22.7815C0.394454 22.7815 0 23.1761 0 23.6628V59.1189C0 59.6056 0.394571 60.0001 0.881252 60.0001H9.89334C10.38 60.0001 10.7746 59.6056 10.7746 59.1189V54.8606H44.0767C44.0803 54.8606 44.0838 54.8601 44.0873 54.86C44.1126 54.8597 44.1377 54.8587 44.1628 54.8563C44.1763 54.855 44.1897 54.8523 44.2031 54.8504C44.218 54.8483 44.2332 54.8467 44.248 54.8437C44.2618 54.841 44.2755 54.8369 44.2892 54.8335C44.3033 54.83 44.3176 54.8271 44.3314 54.823C44.3441 54.8191 44.3564 54.8142 44.3689 54.8098C44.3834 54.8046 44.3983 54.8 44.4126 54.7942C44.4233 54.7897 44.4336 54.7843 44.4443 54.7794C44.4597 54.7723 44.4756 54.7656 44.4908 54.7574C44.5003 54.7523 44.5092 54.7464 44.5186 54.741C44.5342 54.7319 44.55 54.7233 44.5651 54.7131C44.5754 54.7062 44.585 54.6983 44.5952 54.6908C44.6085 54.6811 44.6222 54.6719 44.6349 54.6614C44.6576 54.643 44.6792 54.6233 44.7 54.6026L54.6027 44.7002C54.6315 44.6714 54.6572 44.6404 54.6814 44.6083C54.6859 44.6024 54.6903 44.5964 54.6947 44.5904C54.7405 44.5265 54.7774 44.4572 54.8045 44.3838C54.8074 44.3761 54.8102 44.3682 54.8129 44.3602C54.8375 44.2881 54.8526 44.2128 54.8578 44.1357C54.8585 44.126 54.8589 44.1163 54.8592 44.1064C54.8596 44.0966 54.8606 44.0868 54.8606 44.0769V35.9538C54.8606 35.4671 54.466 35.0725 53.9794 35.0725C53.4927 35.0725 53.0981 35.4671 53.0981 35.9538V43.1952H44.0765C43.5899 43.1952 43.1953 43.5897 43.1953 44.0764V53.098H10.7745V10.7745H36.4372V11.6557C36.4372 12.1424 36.8318 12.537 37.3184 12.537C37.8051 12.537 38.1997 12.1424 38.1997 11.6557V10.7745H53.0982V32.4292C53.0982 32.9159 53.4928 33.3105 53.9795 33.3105C54.4662 33.3105 54.8607 32.9159 54.8607 32.4292V10.7745H59.119C59.6057 10.7745 60.0002 10.3799 60.0002 9.89322V0.881252C60 0.394571 59.6056 0 59.1188 0ZM9.01209 9.01209H1.76239V1.76239H9.01197V9.01209H9.01209ZM44.9578 44.9578H51.8519L44.9578 51.8519V44.9578Z" fill="black"/>
</svg>
