<svg width="60" height="60" viewBox="0 0 60 60" fill="none" xmlns="http://www.w3.org/2000/svg">
<path d="M9.90415 47.4813C8.01368 47.4813 6.47571 49.0193 6.47571 50.9098C6.47571 52.8002 8.01368 54.3382 9.90415 54.3382C11.7947 54.3382 13.3326 52.8002 13.3326 50.9098C13.3326 49.0192 11.7945 47.4813 9.90415 47.4813ZM9.90415 52.5813C8.98247 52.5813 8.23258 51.8316 8.23258 50.9098C8.23258 49.9881 8.98235 49.2382 9.90415 49.2382C10.8259 49.2382 11.5757 49.9881 11.5757 50.9098C11.5756 51.8314 10.8258 52.5813 9.90415 52.5813Z" fill="black"/>
<path d="M57.1602 40.1916H48.3721L56.5051 35.5092C57.1624 35.1307 57.6332 34.5189 57.8303 33.7866C58.0275 33.0541 57.9278 32.2888 57.5493 31.6314L50.4998 19.3867C49.7186 18.0298 47.9789 17.5614 46.622 18.3425L37.3719 23.668L42.7734 14.462C43.1572 13.8077 43.2634 13.0432 43.0723 12.3091C42.8811 11.5751 42.4156 10.9596 41.7614 10.5757L29.5752 3.42539C28.2247 2.63285 26.4813 3.08695 25.6887 4.43754L19.8084 14.4592V2.63531C19.8084 1.18219 18.6261 0 17.1731 0H2.63531C1.1823 0 0 1.1823 0 2.63531V18.0449C0 18.5302 0.393281 18.9233 0.878437 18.9233C1.36371 18.9233 1.75687 18.5302 1.75687 18.0449V2.63531C1.75687 2.15086 2.15086 1.75687 2.63531 1.75687H17.173C17.6575 1.75687 18.0514 2.15086 18.0514 2.63531V57.1601C18.0514 57.7571 17.5658 58.2428 16.9689 58.2429C16.968 58.2429 16.9673 58.243 16.9666 58.243H2.63531C2.15086 58.243 1.75687 57.849 1.75687 57.3646V21.5589C1.75687 21.0736 1.36371 20.6804 0.878437 20.6804C0.393281 20.6804 0 21.0736 0 21.5589V57.3647C0 58.8177 1.1823 60 2.63531 60L35.164 59.9999C35.6493 59.9999 36.0424 59.6067 36.0424 59.1214C36.0424 58.6362 35.6493 58.243 35.164 58.243H19.6574C19.7549 57.9681 19.8084 57.6727 19.8084 57.3647V57.1602V56.6361L20.703 56.121C20.8509 56.2343 21.0354 56.3022 21.236 56.3022H30.0721C30.5573 56.3022 30.9505 55.909 30.9505 55.4237V50.2213L33.0223 49.0286L33.2041 48.9238V55.4237C33.2041 55.909 33.5973 56.3022 34.0826 56.3022H42.9186C43.4039 56.3022 43.7971 55.909 43.7971 55.4237V45.0635C43.7971 44.5782 43.4039 44.1851 42.9186 44.1851H41.4352L45.3203 41.9483H57.16C57.757 41.9483 58.2428 42.4341 58.2428 43.0311V57.16C58.2428 57.757 57.757 58.2428 57.16 58.2428H38.6779C38.1926 58.2428 37.7994 58.6359 37.7994 59.1212C37.7994 59.6065 38.1926 59.9996 38.6779 59.9996H57.1602C58.7261 59.9996 60 58.7258 60 57.1598V43.0312C60 41.4654 58.7262 40.1916 57.1602 40.1916ZM19.8084 25.4978L22.4591 21.0048L29.869 25.3763L26.2719 31.4735L19.8084 27.6604V25.4978ZM19.8084 34.3567L23.3413 36.4409L19.8084 42.4291V34.3567ZM19.8084 44.5836C19.8892 44.6072 19.9714 44.6197 20.0536 44.6197C20.3542 44.6197 20.647 44.4653 20.8111 44.1875L25.3009 36.577C25.4193 36.3764 25.453 36.1369 25.395 35.9113C25.3368 35.6857 25.1914 35.4925 24.9907 35.374L19.8087 32.3167V29.7L26.1359 33.4329C26.2721 33.5134 26.4265 33.5546 26.5822 33.5546C26.6557 33.5546 26.7293 33.5455 26.8016 33.5269C27.0272 33.4686 27.2204 33.3233 27.3389 33.1226L31.8287 25.5121C32.0752 25.0943 31.9364 24.5557 31.5184 24.309L22.5954 19.0448C22.1781 18.7986 21.6391 18.9371 21.3925 19.3552L19.8087 22.0398V17.9305L27.2044 5.32629C27.5066 4.81125 28.1718 4.63828 28.6863 4.94039L40.8724 12.0907H40.8725C41.3875 12.3928 41.5605 13.0576 41.2584 13.5724L19.8086 50.1291V44.5836H19.8084ZM31.524 33.6346L35.6749 31.252L39.9574 38.7136L33.8176 42.2374L30.1874 35.9123L30.7096 35.0224L31.524 33.6346ZM26.8256 41.6416L28.8152 45.1084L22.7483 48.5905L22.9018 48.3287L23.8221 46.7604L26.8256 41.6416ZM29.1937 54.5453H23.4402L29.1937 51.2329V54.5453ZM42.0404 45.9421V54.5453H34.9613V47.9123L35.7219 47.4744L38.3837 45.9421H42.0404ZM19.8084 54.6088V53.601L21.6853 50.4022C21.8548 50.6002 22.0997 50.7101 22.3516 50.7101C22.5 50.7101 22.6504 50.6726 22.7882 50.5935L30.4518 46.195C30.6539 46.0791 30.8014 45.8875 30.8624 45.6626C30.9233 45.4377 30.8924 45.1978 30.7764 44.9958L27.8496 39.8964L29.1632 37.6577L32.7309 43.8739C32.8934 44.157 33.1893 44.3153 33.4937 44.3153C33.6421 44.3153 33.7924 44.2778 33.9302 44.1987L41.5938 39.8002C42.0146 39.5588 42.16 39.0217 41.9184 38.601L36.7615 29.6155C36.6455 29.4134 36.454 29.2658 36.2291 29.2049C36.0042 29.1438 35.7643 29.175 35.5623 29.2909L33.3162 30.5801L35.5757 26.7292L47.4983 19.865C48.0158 19.5673 48.6793 19.7457 48.977 20.2631L56.0264 32.5078C56.1707 32.7585 56.2089 33.0504 56.1335 33.3295C56.0583 33.6089 55.8789 33.8422 55.6282 33.9864L19.8084 54.6088Z" fill="black"/>
<path d="M15.165 4.17029H4.80483C4.31956 4.17029 3.92639 4.56345 3.92639 5.04873V13.8848C3.92639 14.3701 4.31956 14.7632 4.80483 14.7632H15.165C15.6503 14.7632 16.0435 14.3701 16.0435 13.8848V5.04873C16.0435 4.56345 15.6502 4.17029 15.165 4.17029ZM14.2865 13.0063H5.68327V5.92716H14.2865V13.0063Z" fill="black"/>
<path d="M15.165 17.0168H4.80483C4.31956 17.0168 3.92639 17.41 3.92639 17.8953V26.7313C3.92639 27.2166 4.31956 27.6098 4.80483 27.6098H15.165C15.6503 27.6098 16.0435 27.2166 16.0435 26.7313V17.8953C16.0435 17.4101 15.6502 17.0168 15.165 17.0168ZM14.2865 25.8529H5.68327V18.7737H14.2865V25.8529Z" fill="black"/>
<path d="M15.165 29.8635H4.80483C4.31956 29.8635 3.92639 30.2567 3.92639 30.742V39.5779C3.92639 40.0632 4.31956 40.4563 4.80483 40.4563H15.165C15.6503 40.4563 16.0435 40.0632 16.0435 39.5779V30.742C16.0435 30.2567 15.6502 29.8635 15.165 29.8635ZM14.2865 38.6995H5.68327V31.6204H14.2865V38.6995Z" fill="black"/>
<path d="M55.7656 44.1852H46.9296C46.4443 44.1852 46.0511 44.5783 46.0511 45.0636V55.4238C46.0511 55.9091 46.4443 56.3023 46.9296 56.3023H55.7656C56.2509 56.3023 56.6441 55.9091 56.6441 55.4238V45.0636C56.6441 44.5785 56.2508 44.1852 55.7656 44.1852ZM54.8871 54.5454H47.8079V45.9422H54.8871V54.5454Z" fill="black"/>
<path d="M38.0461 13.2447L29.1231 7.98049C28.7056 7.73428 28.1668 7.87291 27.92 8.2908L26.6691 10.411C26.4227 10.8287 26.5615 11.3673 26.9795 11.614C27.3971 11.8602 27.9358 11.7217 28.1825 11.3037L28.9868 9.94021L36.3966 14.3117L32.7996 20.409L25.3898 16.0375L26.3966 14.3311C26.6431 13.9133 26.5043 13.3747 26.0863 13.1281C25.6687 12.8817 25.1299 13.0204 24.8832 13.4384L23.4302 15.9012C23.1838 16.3191 23.3225 16.8577 23.7405 17.1042L32.6635 22.3685C32.7998 22.4489 32.9543 22.4903 33.1099 22.4903C33.1834 22.4903 33.257 22.4812 33.3293 22.4625C33.5548 22.4043 33.7481 22.259 33.8666 22.0582L38.3564 14.4476C38.6028 14.0298 38.464 13.4913 38.0461 13.2447Z" fill="black"/>
<path d="M53.0604 32.2061L47.9034 23.2206C47.6618 22.7997 47.1249 22.6543 46.7043 22.896L39.0406 27.2945C38.8385 27.4105 38.6909 27.602 38.6299 27.8269C38.569 28.0518 38.5999 28.2916 38.7159 28.4937L43.8729 37.4791C44.0353 37.7621 44.3312 37.9204 44.6357 37.9204C44.784 37.9204 44.9344 37.8828 45.0722 37.8037L52.7358 33.4052C53.1566 33.1638 53.3018 32.6268 53.0604 32.2061ZM44.9595 35.8427L40.6768 28.3812L46.8168 24.8572L51.0993 32.3188L44.9595 35.8427Z" fill="black"/>
</svg>
