<svg width="60" height="60" viewBox="0 0 60 60" fill="none" xmlns="http://www.w3.org/2000/svg">
<g clip-path="url(#clip0_717_561)">
<path d="M53.0901 42.3426C52.7611 42.2062 52.3823 42.2816 52.1304 42.5334L42.5062 52.1576C42.2544 52.4096 42.179 52.7883 42.3154 53.1174C42.4516 53.4466 42.7729 53.661 43.1291 53.661H52.7532C53.2397 53.661 53.6339 53.2668 53.6339 52.7803V43.1562C53.6338 42.8 53.4192 42.4789 53.0901 42.3426ZM45.2548 51.8998L51.8723 45.2823V51.8998H45.2548Z" fill="black"/>
<path d="M59.4565 28.2266C59.1274 28.0902 58.7487 28.1655 58.4967 28.4174L55.8592 31.0549V13.1215C55.8592 12.6351 55.4648 12.2409 54.9785 12.2409H48.212L50.6682 9.78462C50.6686 9.78427 50.6689 9.7838 50.6693 9.78345L53.036 7.41673C53.5431 6.90966 53.8223 6.23512 53.8223 5.51793C53.8223 4.80075 53.5431 4.12645 53.036 3.61914L50.2992 0.882338C49.7921 0.375267 49.1176 0.0960083 48.4004 0.0960083C47.6832 0.0960083 47.0088 0.375267 46.5016 0.882338L44.1337 3.25023L41.2725 6.11149L35.1432 12.2408H7.80705V3.52844C7.80705 3.04199 7.41271 2.64777 6.92638 2.64777C3.10723 2.64801 0 5.755 0 9.57439V46.9791C0 47.0441 0.00750002 47.1074 0.0208594 47.1683C0.1425 48.7889 0.843635 50.2947 2.01539 51.4377C3.2679 52.6593 4.9213 53.3321 6.67115 53.3321H33.5819L28.5137 58.4003C28.2618 58.6523 28.1865 59.0309 28.3228 59.3601C28.459 59.6891 28.7803 59.9037 29.1364 59.9037H59.1195C59.6058 59.9037 60.0001 59.5095 60.0001 59.023V29.0402C60.0001 28.6841 59.7854 28.3629 59.4565 28.2266ZM47.7473 2.12793C48.1073 1.76769 48.6939 1.76769 49.0539 2.12793L51.7908 4.86485C52.151 5.22496 52.151 5.81125 51.7908 6.17149L50.0457 7.91665L46.002 3.87309L47.7473 2.12793ZM44.7566 5.11856L48.8001 9.162L47.1842 10.7779L43.1409 6.73446L44.7566 5.11856ZM58.239 38.9358H56.6142C56.1278 38.9358 55.7336 39.33 55.7336 39.8164C55.7336 40.3029 56.1278 40.6971 56.6142 40.6971H58.239V43.3509H56.6142C56.1278 43.3509 55.7336 43.7452 55.7336 44.2316C55.7336 44.7181 56.1278 45.1123 56.6142 45.1123H58.239V47.766H56.6142C56.1278 47.766 55.7336 48.1602 55.7336 48.6467C55.7336 49.1331 56.1278 49.5273 56.6142 49.5273H58.239V52.1812H56.6142C56.1278 52.1812 55.7336 52.5755 55.7336 53.0618C55.7336 53.5483 56.1278 53.9425 56.6142 53.9425H58.239V58.1427H31.2624L40.1579 49.2474C40.5018 48.9033 40.5018 48.3458 40.1579 48.0019C40.1184 47.9624 40.076 47.9282 40.0316 47.8977C39.6887 47.6629 39.2169 47.6974 38.9123 48.0019L35.3432 51.571H6.67126C4.00032 51.571 1.85016 49.4857 1.76555 46.8196C1.77059 46.6522 1.7836 46.4863 1.80446 46.3222C1.80457 46.3213 1.80469 46.3204 1.80481 46.3194C1.81465 46.2415 1.82649 46.1639 1.83996 46.0868C1.84149 46.078 1.84313 46.0692 1.84465 46.0604C1.85696 45.9917 1.87079 45.9232 1.8859 45.855C1.89012 45.836 1.89457 45.817 1.89903 45.7982C1.91239 45.7405 1.9268 45.6832 1.94227 45.6261C1.95071 45.5952 1.9595 45.5646 1.96852 45.5338C1.98141 45.489 1.99477 45.4444 2.00895 45.4002C2.02313 45.356 2.03825 45.3123 2.0536 45.2686C2.06426 45.238 2.07481 45.2074 2.08629 45.1771C2.10774 45.1194 2.13047 45.0624 2.15391 45.0058C2.16059 44.9895 2.16715 44.9729 2.17407 44.9566C2.20418 44.8863 2.23547 44.8168 2.26852 44.7482C2.26993 44.7452 2.27122 44.7423 2.27262 44.7394C2.96145 43.3139 4.28626 42.2511 5.87614 41.9214C5.8806 41.9204 5.88505 41.9194 5.8895 41.9184C5.96239 41.9036 6.03599 41.8908 6.11005 41.8789C6.12236 41.877 6.13466 41.8745 6.1472 41.8726C6.21411 41.8624 6.28173 41.8545 6.34935 41.8468C6.36833 41.8447 6.3872 41.8418 6.4063 41.8399C6.47158 41.8334 6.53744 41.829 6.60329 41.8249C6.62415 41.8236 6.64501 41.8214 6.66587 41.8204C6.75212 41.816 6.83908 41.8138 6.92638 41.8138C7.41271 41.8138 7.80705 41.4196 7.80705 40.9331V34.5477C7.80705 34.0612 7.41271 33.667 6.92638 33.667C6.44005 33.667 6.04572 34.0612 6.04572 34.5477V40.1079C4.5586 40.296 3.17825 40.9593 2.08981 42.0221C1.97532 42.1339 1.8668 42.2502 1.7611 42.3683V9.57439C1.7611 7.02661 3.61571 4.90352 6.0456 4.48422V13.1215V31.0251V31.0253C6.0456 31.5116 6.43994 31.9059 6.92626 31.9059C7.41259 31.9059 7.80693 31.5116 7.80693 31.0253V31.0251V14.0022H33.382L28.5135 18.8707C28.1696 19.2147 28.1696 19.7722 28.5135 20.1161C28.8575 20.46 29.4151 20.46 29.7589 20.1161L36.1307 13.7443C36.131 13.744 36.1311 13.7438 36.1313 13.7437L41.8952 7.97981L45.9385 12.0234L45.4642 12.4978C45.4638 12.4981 45.4633 12.4985 45.463 12.4988L27.7058 30.2563L23.6623 26.2128L27.1625 22.7127C27.5064 22.3686 27.5064 21.8111 27.1625 21.4672C26.8185 21.1234 26.261 21.1234 25.9171 21.4672L21.7941 25.5901C21.7721 25.6121 21.7515 25.6354 21.7321 25.6593C21.7257 25.6673 21.7199 25.6759 21.7138 25.6842C21.7014 25.7007 21.6892 25.7174 21.6779 25.7347C21.6714 25.7448 21.6656 25.7551 21.6595 25.7655C21.6497 25.7819 21.6404 25.7986 21.6318 25.8156C21.6262 25.8266 21.6211 25.8377 21.616 25.8492C21.6081 25.8664 21.6009 25.884 21.5942 25.9016C21.5918 25.9078 21.5888 25.9136 21.5866 25.9199L19.8708 30.7802L18.7011 34.0942C18.6856 34.1382 18.6745 34.183 18.6661 34.2281H15.7374C15.251 34.2281 14.8567 34.6223 14.8567 35.1088C14.8567 35.5952 15.251 35.9894 15.7374 35.9894H40.1258C40.6122 35.9894 41.0065 35.5952 41.0065 35.1088C41.0065 34.6223 40.6122 34.2281 40.1258 34.2281H22.6281L27.9988 32.3322C28.0033 32.3306 28.0075 32.3284 28.012 32.3267C28.0328 32.319 28.0533 32.3103 28.0736 32.3011C28.0817 32.2973 28.0898 32.2938 28.0976 32.2899C28.1187 32.2794 28.1395 32.2678 28.1599 32.2554C28.1664 32.2514 28.1732 32.2478 28.1797 32.2437C28.2009 32.2301 28.2215 32.2152 28.2418 32.1995C28.2468 32.1956 28.2521 32.1922 28.257 32.1882C28.2815 32.1685 28.3055 32.1473 28.3283 32.1246L46.4506 14.0023H54.0977V32.8163L41.5005 45.4137C41.1566 45.7577 41.1566 46.3152 41.5005 46.6591C41.522 46.6806 41.5443 46.7008 41.5674 46.7196C41.7289 46.8512 41.9261 46.9171 42.1232 46.9171C42.3204 46.9171 42.5177 46.8512 42.6791 46.7196C42.7022 46.7009 42.7245 46.6806 42.746 46.6591C42.7463 46.6588 42.746 46.6592 42.7463 46.6588L58.239 31.166V38.9358ZM26.095 31.1362L23.5724 32.0267L21.8917 30.346L22.7822 27.8234L26.095 31.1362Z" fill="black"/>
</g>
<defs>
<clipPath id="clip0_717_561">
<rect width="60" height="60" fill="white"/>
</clipPath>
</defs>
</svg>
