<svg viewBox="0 0 131 30" fill="none" xmlns="http://www.w3.org/2000/svg">
    <path d="M40.4873 10.1918H43.4662L51.7856 29.5101H47.8519L46.0524 25.0896H37.6779L35.9321 29.5101H32.0867L40.4873 10.1918ZM44.8513 22.1431L41.8724 14.2847L38.8457 22.1431H44.8513ZM55.3267 10.1918H61.6264C62.6345 10.1814 63.6408 10.282 64.627 10.4918C65.4489 10.6623 66.2283 10.996 66.9191 11.473C67.5485 11.9193 68.0549 12.5176 68.3912 13.2122C68.7379 13.9224 68.9108 14.7775 68.9099 15.7776C68.9099 16.8511 68.7099 17.7516 68.31 18.4792C67.9238 19.1915 67.3661 19.7963 66.6873 20.2387C65.9571 20.7044 65.1478 21.0325 64.2995 21.2068C63.3475 21.4129 62.3758 21.514 61.4018 21.5083H58.7634V29.5029H55.3267V10.1918ZM61.1627 18.6226C61.7017 18.6248 62.24 18.5836 62.7724 18.4994C63.2474 18.4291 63.7078 18.2823 64.1358 18.0646C64.5238 17.8666 64.853 17.5703 65.0906 17.2052C65.3442 16.7767 65.4675 16.2837 65.4456 15.7863C65.4749 15.3306 65.3672 14.8766 65.1364 14.4827C64.9055 14.0888 64.5621 13.773 64.1503 13.576C63.7308 13.3676 63.2783 13.2337 62.813 13.1803C62.3022 13.1159 61.7877 13.0839 61.2728 13.0847H58.7634V18.6241L61.1627 18.6226ZM73.6028 10.1918H79.9039C80.9121 10.1815 81.9183 10.2821 82.9045 10.4918C83.7254 10.6627 84.5038 10.9964 85.1937 11.473C85.8232 11.9197 86.33 12.5178 86.6672 13.2122C87.0121 13.9224 87.1845 14.7775 87.1845 15.7776C87.1845 16.8511 86.9845 17.7516 86.5847 18.4792C86.1989 19.1919 85.6411 19.7967 84.9619 20.2387C84.232 20.704 83.4233 21.0321 82.5756 21.2068C81.6236 21.4127 80.6519 21.5138 79.6779 21.5083H77.038V29.5029H73.6028V10.1918ZM79.4403 18.6226C79.9788 18.6248 80.5166 18.5836 81.0485 18.4994C81.524 18.4294 81.9849 18.2825 82.4134 18.0646C82.801 17.8663 83.1302 17.57 83.3682 17.2052C83.6212 16.7766 83.744 16.2835 83.7217 15.7863C83.7431 15.3019 83.6201 14.8221 83.3682 14.4079C83.1314 14.0539 82.8069 13.7672 82.4264 13.576C82.0074 13.3676 81.5554 13.2337 81.0905 13.1803C80.5773 13.1152 80.0605 13.0828 79.5431 13.0832H77.038V18.6226H79.4403ZM91.8774 10.1918H98.5871C99.4774 10.1914 100.365 10.2886 101.234 10.4817C102.044 10.6552 102.816 10.9744 103.512 11.4237C104.174 11.8593 104.721 12.4491 105.106 13.1427C105.505 13.8519 105.705 14.7157 105.705 15.7341C105.705 17.1351 105.31 18.2767 104.519 19.1589C103.728 20.0411 102.65 20.6367 101.286 20.9459L106.441 29.5145H102.29L97.8163 21.3286H95.3127V29.5145H91.8759L91.8774 10.1918ZM98.1235 18.5139C98.6161 18.5149 99.1082 18.4791 99.5955 18.4067C100.056 18.3438 100.503 18.2057 100.918 17.998C101.309 17.7986 101.642 17.5028 101.886 17.1385C102.156 16.7112 102.29 16.2117 102.269 15.7066C102.288 15.2478 102.164 14.7944 101.914 14.4094C101.68 14.0753 101.372 13.8 101.014 13.605C100.628 13.3949 100.207 13.2541 99.7723 13.189C99.3257 13.1174 98.8742 13.0806 98.422 13.0789H95.3127V18.5096L98.1235 18.5139ZM109.743 19.7952C109.722 18.3616 109.987 16.9382 110.521 15.608C111.008 14.4083 111.742 13.3248 112.676 12.4281C113.619 11.5406 114.733 10.8538 115.949 10.4092C117.273 9.92628 118.672 9.68619 120.081 9.70047C121.504 9.68552 122.917 9.92555 124.255 10.4092C125.48 10.8535 126.603 11.5401 127.556 12.4281C128.499 13.3208 129.24 14.405 129.729 15.608C130.264 16.9382 130.528 18.3616 130.507 19.7952C130.525 21.2115 130.261 22.6172 129.729 23.9301C129.234 25.1411 128.494 26.2369 127.556 27.1491C126.607 28.0631 125.485 28.7777 124.255 29.2507C122.923 29.7618 121.506 30.0165 120.08 30.0014C118.667 30.0161 117.265 29.7618 115.948 29.2521C114.726 28.7788 113.613 28.0641 112.675 27.1506C111.746 26.2345 111.013 25.1394 110.52 23.9316C109.988 22.6182 109.724 21.212 109.742 19.7952H109.743ZM113.48 19.7952C113.469 20.7668 113.631 21.7327 113.958 22.6475C114.258 23.4815 114.721 24.2469 115.322 24.8983C115.912 25.5339 116.627 26.0402 117.422 26.3853C118.272 26.7485 119.188 26.9297 120.112 26.9172C121.039 26.9284 121.958 26.7473 122.812 26.3853C123.613 26.0427 124.333 25.5362 124.926 24.8983C125.527 24.2469 125.99 23.4815 126.29 22.6475C126.617 21.7327 126.779 20.7668 126.768 19.7952C126.777 18.8464 126.615 17.9038 126.29 17.0124C125.987 16.1883 125.527 15.4312 124.935 14.7833C124.348 14.1388 123.633 13.6248 122.835 13.2746C121.976 12.9026 121.048 12.7164 120.112 12.7282C119.178 12.7147 118.253 12.901 117.398 13.2746C116.604 13.6267 115.892 14.1406 115.307 14.7833C114.716 15.4337 114.257 16.1934 113.957 17.0197C113.633 17.9087 113.471 18.8488 113.479 19.7952H113.48ZM19.4844 5.73651L28.8326 14.9906L31.8911 11.902L19.8713 0L12.0097 5.91913V3.24074H7.66309V9.19175L0 14.9616L2.60797 18.44L19.4844 5.73651Z"
          fill="#FFB000"/>
</svg>
