<svg width="60" height="60" viewBox="0 0 60 60" fill="none" xmlns="http://www.w3.org/2000/svg">
<path d="M30.1489 12.2394C21.554 12.2394 14.5615 19.232 14.5615 27.8268C14.5615 27.8609 14.5632 27.8943 14.566 27.9337C14.578 28.4082 14.9664 28.7887 15.4432 28.7887H33.0145C33.4991 28.7887 33.8921 28.3959 33.8921 27.9111C33.8921 27.4263 33.4991 27.0335 33.0145 27.0335H16.3393C16.7518 19.7741 22.7881 13.9946 30.1489 13.9946C37.5096 13.9946 43.546 19.7741 43.9586 27.0335H36.5252C36.0403 27.0335 35.6475 27.4264 35.6475 27.9111C35.6475 28.3959 36.0405 28.7887 36.5252 28.7887H44.8545C45.331 28.7887 45.7191 28.4089 45.7318 27.935C45.7345 27.8991 45.7363 27.8634 45.7363 27.8268C45.7363 19.232 38.7438 12.2394 30.1489 12.2394ZM45.7316 27.9348C45.7319 27.9291 45.7319 27.9235 45.732 27.9178C45.7319 27.9254 45.7318 27.9324 45.7316 27.9348Z" fill="black"/>
<path d="M59.1224 26.8868H54.9307C54.7054 20.6414 52.149 14.7784 47.676 10.2938C42.9793 5.58469 36.7547 2.99133 30.1486 2.99133C25.4647 2.99133 20.8971 4.31813 16.9399 6.8284C16.5306 7.08809 16.4094 7.6302 16.669 8.03965C16.9286 8.44911 17.471 8.57039 17.8802 8.31059C21.5558 5.97903 25.7981 4.74657 30.1486 4.74657C36.285 4.74657 42.0683 7.15688 46.4332 11.5331C50.7846 15.8963 53.1848 21.6609 53.1916 27.7654C53.1922 28.2498 53.5849 28.642 54.0693 28.642H58.2448V37.2339H51.6797V34.9196C51.6797 34.4348 51.2869 34.042 50.8021 34.042C50.3173 34.042 49.9245 34.4348 49.9245 34.9196V37.2339H45.7364V32.9827C45.7364 32.4979 45.3436 32.105 44.8588 32.105C44.3741 32.105 43.9812 32.4979 43.9812 32.9827V37.2339H39.7928V34.9196C39.7928 34.4348 39.4 34.042 38.9152 34.042C38.4304 34.042 38.0375 34.4348 38.0375 34.9196V37.2339H33.8495V32.9827C33.8495 32.4979 33.4567 32.105 32.9719 32.105C32.4871 32.105 32.0943 32.4979 32.0943 32.9827V37.2339H27.9061V34.9196C27.9061 34.4348 27.5133 34.042 27.0285 34.042C26.5437 34.042 26.1509 34.4348 26.1509 34.9196V37.2339H21.9628V32.9827C21.9628 32.4979 21.57 32.105 21.0852 32.105C20.6004 32.105 20.2076 32.4979 20.2076 32.9827V37.2339H16.0194V34.9196C16.0194 34.4348 15.6266 34.042 15.1418 34.042C14.657 34.042 14.2642 34.4348 14.2642 34.9196V37.2339H10.0761V32.9827C10.0761 32.4979 9.68332 32.105 9.19852 32.105C8.71371 32.105 8.3209 32.4979 8.3209 32.9827V37.2339H1.75523V28.642H6.22793C6.71227 28.642 7.10496 28.2498 7.10555 27.7654C7.11293 21.1009 10.0383 14.7545 15.1314 10.3532C15.4982 10.0363 15.5386 9.48211 15.2216 9.11532C14.9046 8.74852 14.3504 8.70821 13.9838 9.02508C8.72859 13.5662 5.61902 20.0355 5.36672 26.8868H0.877617C0.392812 26.8868 0 27.2796 0 27.7644V38.1115C0 38.5963 0.392812 38.9891 0.877617 38.9891H59.1224C59.6072 38.9891 60 38.5963 60 38.1115V27.7644C60 27.2797 59.6072 26.8868 59.1224 26.8868Z" fill="black"/>
<path d="M59.9475 50.8211C59.9467 50.812 59.9449 50.8029 59.9435 50.7938C59.9395 50.7673 59.9344 50.7414 59.928 50.7158C59.9258 50.7071 59.9237 50.6984 59.9214 50.6897C59.913 50.6599 59.9033 50.6307 59.892 50.6021C59.8907 50.5989 59.8897 50.5958 59.8884 50.5926C59.875 50.56 59.8596 50.5286 59.8427 50.498C59.8398 50.4927 59.8364 50.4878 59.8334 50.4827C59.8192 50.4584 59.8038 50.4352 59.7875 50.4125C59.7819 50.4046 59.7761 50.3969 59.7702 50.3893C59.7534 50.3677 59.7359 50.3472 59.7173 50.3273C59.7124 50.322 59.708 50.3165 59.7029 50.3113C59.679 50.287 59.6538 50.2642 59.6272 50.2428C59.6218 50.2384 59.6161 50.2346 59.6107 50.2304C59.588 50.2129 59.5645 50.1966 59.5402 50.1815C59.5362 50.179 59.5328 50.176 59.5289 50.1736L50.867 44.969C50.6044 44.811 50.278 44.8018 50.0065 44.9445L47.1434 46.4505V45.9084C47.1434 45.4236 46.7505 45.0308 46.2657 45.0308H42.0926C41.6079 45.0308 41.215 45.4236 41.215 45.9084V45.984L35.6902 45.0433C35.6863 45.0426 35.6824 45.0426 35.6786 45.042C35.6598 45.0391 35.6409 45.0372 35.6221 45.0356C35.6096 45.0345 35.5972 45.033 35.5849 45.0324C35.5669 45.0316 35.5488 45.0319 35.5308 45.0322C35.5175 45.0323 35.5043 45.032 35.4912 45.0329C35.4882 45.0331 35.4854 45.0329 35.4825 45.033L16.6269 46.3327C16.1433 46.3661 15.7784 46.785 15.8116 47.2686C15.845 47.7522 16.2673 48.1165 16.7475 48.0838L34.6651 46.8487V55.1903L3.65297 53.0526C2.58879 52.9793 1.75523 52.0863 1.75523 51.0196C1.75523 49.953 2.58879 49.06 3.65285 48.9866L13.1952 48.3288C13.6788 48.2954 14.0437 47.8764 14.0105 47.3929C13.977 46.9093 13.5574 46.5446 13.0746 46.5776L3.53227 47.2355C1.55156 47.3722 0 49.0342 0 51.0196C0 53.0049 1.55156 54.6672 3.53215 54.8038L35.4823 57.0064C35.5024 57.0078 35.5227 57.0085 35.5426 57.0085C35.5886 57.0085 35.634 57.004 35.6788 56.997C35.6824 56.9964 35.6862 56.9967 35.6898 56.9961L41.2146 56.0554V56.131C41.2146 56.6158 41.6075 57.0086 42.0922 57.0086H46.2654C46.7502 57.0086 47.143 56.6158 47.143 56.131V55.4016L50.0061 56.9076C50.1342 56.975 50.2746 57.0085 50.4146 57.0085C50.5713 57.0085 50.7279 56.9667 50.8665 56.8832L59.5284 51.6787C59.5324 51.6763 59.5358 51.6733 59.5397 51.6708C59.5641 51.6556 59.5875 51.6393 59.6102 51.622C59.6157 51.6177 59.6215 51.6139 59.6268 51.6095C59.6534 51.5881 59.6786 51.5654 59.7025 51.541C59.7075 51.5359 59.712 51.5304 59.7168 51.5252C59.7354 51.5052 59.7531 51.4846 59.7697 51.4631C59.7757 51.4554 59.7814 51.4477 59.7871 51.4399C59.8035 51.4172 59.8187 51.3939 59.8329 51.3697C59.8359 51.3645 59.8393 51.3596 59.8423 51.3543C59.8594 51.3238 59.8747 51.2924 59.888 51.2599C59.8893 51.2567 59.8902 51.2534 59.8915 51.2502C59.9029 51.2218 59.9126 51.1926 59.9209 51.1626C59.9234 51.154 59.9255 51.1454 59.9276 51.1367C59.9339 51.111 59.9389 51.0851 59.943 51.0585C59.9445 51.0494 59.9461 51.0402 59.9473 51.031C59.9514 50.9964 59.9542 50.9617 59.9542 50.926C59.9542 50.8902 59.9517 50.8556 59.9475 50.8211ZM41.2148 54.2747L36.4203 55.0912V46.9483L41.2148 47.7647V54.2747ZM45.388 47.9024C45.388 47.903 45.3879 47.9035 45.3879 47.9035V53.9481L45.388 53.9498V55.2531H42.9701V55.0156V47.0238V46.7862H45.388V47.9024ZM51.4396 52.8381C52.172 52.8381 52.8075 52.4173 53.1238 51.8038H55.9123L50.3864 55.1242L47.1432 53.4182V48.434L50.3864 46.7281L55.9123 50.0485H53.1238C52.8075 49.435 52.172 49.0142 51.4396 49.0142C50.3931 49.0142 49.5416 49.8719 49.5416 50.9261C49.5415 51.9802 50.393 52.8381 51.4396 52.8381Z" fill="black"/>
</svg>
